<mxfile host="app.diagrams.net" modified="2020-05-29T03:46:59.728Z" agent="5.0 (Windows NT 10.0; Win64; x64) AppleWebKit/537.36 (KHTML, like Gecko) Chrome/81.0.4044.138 Safari/537.36" etag="RJdUjDni2atx74_bToEM" version="13.1.6" type="github">
  <diagram name="Page-1" id="90a13364-a465-7bf4-72fc-28e22215d7a0">
    <mxGraphModel dx="2621.5" dy="460" grid="1" gridSize="10" guides="1" tooltips="1" connect="1" arrows="1" fold="1" page="1" pageScale="1.5" pageWidth="1169" pageHeight="826" background="#ffffff" math="0" shadow="0">
      <root>
        <mxCell id="0" style=";html=1;" />
        <mxCell id="1" style=";html=1;" parent="0" />
        <mxCell id="3a17f1ce550125da-8" value="Модуль менеджера" style="whiteSpace=wrap;html=1;shadow=1;fontSize=18;fillColor=#f5f5f5;strokeColor=#666666;spacingTop=0;labelPosition=center;verticalLabelPosition=top;align=center;verticalAlign=bottom;horizontal=1;spacing=-40;" parent="1" vertex="1">
          <mxGeometry x="-570" y="220" width="200" height="160" as="geometry" />
        </mxCell>
        <mxCell id="UbZ7hRdjI9tE5br1Ygn5-4" value="Модуль формы&lt;br&gt;(сервер)" style="whiteSpace=wrap;html=1;shadow=1;fontSize=18;fillColor=#f5f5f5;strokeColor=#666666;spacingTop=0;labelPosition=center;verticalLabelPosition=top;align=center;verticalAlign=bottom;horizontal=1;spacing=-60;" parent="1" vertex="1">
          <mxGeometry x="-350" y="220" width="200" height="470" as="geometry" />
        </mxCell>
        <mxCell id="UbZ7hRdjI9tE5br1Ygn5-5" value="Модуль формы&lt;br&gt;(клиент)" style="whiteSpace=wrap;html=1;shadow=1;fontSize=18;fillColor=#f5f5f5;strokeColor=#666666;spacingTop=0;labelPosition=center;verticalLabelPosition=top;align=center;verticalAlign=bottom;horizontal=1;spacing=-60;" parent="1" vertex="1">
          <mxGeometry x="-570" y="398" width="200" height="292" as="geometry" />
        </mxCell>
        <mxCell id="UbZ7hRdjI9tE5br1Ygn5-6" value="Модуль объекта" style="whiteSpace=wrap;html=1;shadow=1;fontSize=18;fillColor=#f5f5f5;strokeColor=#666666;spacingTop=0;labelPosition=center;verticalLabelPosition=top;align=center;verticalAlign=bottom;horizontal=1;spacing=-40;" parent="1" vertex="1">
          <mxGeometry x="-130" y="220" width="200" height="280" as="geometry" />
        </mxCell>
        <mxCell id="UbZ7hRdjI9tE5br1Ygn5-8" value="1. Обработка получения формы" style="rounded=0;whiteSpace=wrap;html=1;strokeColor=#00CC00;" parent="1" vertex="1">
          <mxGeometry x="-530" y="299" width="120" height="54" as="geometry" />
        </mxCell>
        <mxCell id="UbZ7hRdjI9tE5br1Ygn5-48" style="edgeStyle=orthogonalEdgeStyle;rounded=0;orthogonalLoop=1;jettySize=auto;html=1;entryX=0;entryY=0.5;entryDx=0;entryDy=0;strokeColor=#000000;fontColor=#666666;" parent="1" source="UbZ7hRdjI9tE5br1Ygn5-9" target="UbZ7hRdjI9tE5br1Ygn5-10" edge="1">
          <mxGeometry relative="1" as="geometry" />
        </mxCell>
        <mxCell id="UbZ7hRdjI9tE5br1Ygn5-9" value="2. Активация модуля формы (на сервере)" style="rounded=0;whiteSpace=wrap;html=1;strokeColor=#666666;fontColor=#666666;" parent="1" vertex="1">
          <mxGeometry x="-315" y="296" width="130" height="60" as="geometry" />
        </mxCell>
        <mxCell id="UbZ7hRdjI9tE5br1Ygn5-72" style="edgeStyle=orthogonalEdgeStyle;rounded=0;orthogonalLoop=1;jettySize=auto;html=1;exitX=0.5;exitY=1;exitDx=0;exitDy=0;entryX=0.5;entryY=0;entryDx=0;entryDy=0;strokeColor=#000000;fontColor=#666666;" parent="1" source="UbZ7hRdjI9tE5br1Ygn5-10" target="UbZ7hRdjI9tE5br1Ygn5-14" edge="1">
          <mxGeometry relative="1" as="geometry" />
        </mxCell>
        <mxCell id="UbZ7hRdjI9tE5br1Ygn5-73" style="edgeStyle=orthogonalEdgeStyle;rounded=0;orthogonalLoop=1;jettySize=auto;html=1;exitX=0.5;exitY=1;exitDx=0;exitDy=0;strokeColor=#000000;fontColor=#666666;" parent="1" source="UbZ7hRdjI9tE5br1Ygn5-10" target="UbZ7hRdjI9tE5br1Ygn5-11" edge="1">
          <mxGeometry relative="1" as="geometry" />
        </mxCell>
        <mxCell id="UbZ7hRdjI9tE5br1Ygn5-74" style="edgeStyle=orthogonalEdgeStyle;rounded=0;orthogonalLoop=1;jettySize=auto;html=1;exitX=0.5;exitY=1;exitDx=0;exitDy=0;entryX=0.5;entryY=0;entryDx=0;entryDy=0;strokeColor=#000000;fontColor=#666666;" parent="1" source="UbZ7hRdjI9tE5br1Ygn5-10" target="UbZ7hRdjI9tE5br1Ygn5-12" edge="1">
          <mxGeometry relative="1" as="geometry" />
        </mxCell>
        <mxCell id="UbZ7hRdjI9tE5br1Ygn5-10" value="3. Активация модуля объекта" style="rounded=0;whiteSpace=wrap;html=1;strokeColor=#666666;fontColor=#666666;" parent="1" vertex="1">
          <mxGeometry x="-95" y="296" width="130" height="60" as="geometry" />
        </mxCell>
        <mxCell id="yr5bRLXEil9Msows_Bht-2" style="edgeStyle=orthogonalEdgeStyle;rounded=0;orthogonalLoop=1;jettySize=auto;html=1;entryX=0.5;entryY=0;entryDx=0;entryDy=0;fontColor=#666666;" parent="1" source="UbZ7hRdjI9tE5br1Ygn5-11" target="UbZ7hRdjI9tE5br1Ygn5-20" edge="1">
          <mxGeometry relative="1" as="geometry">
            <Array as="points">
              <mxPoint x="-75" y="460" />
              <mxPoint x="-250" y="460" />
            </Array>
          </mxGeometry>
        </mxCell>
        <mxCell id="UbZ7hRdjI9tE5br1Ygn5-11" value="4. При копировании" style="rounded=0;whiteSpace=wrap;html=1;strokeColor=#00CC00;" parent="1" vertex="1">
          <mxGeometry x="-120" y="404" width="90" height="36" as="geometry" />
        </mxCell>
        <mxCell id="UbZ7hRdjI9tE5br1Ygn5-71" style="edgeStyle=orthogonalEdgeStyle;rounded=0;orthogonalLoop=1;jettySize=auto;html=1;exitX=0.5;exitY=1;exitDx=0;exitDy=0;entryX=0.5;entryY=0;entryDx=0;entryDy=0;strokeColor=#000000;fontColor=#666666;" parent="1" source="UbZ7hRdjI9tE5br1Ygn5-12" target="UbZ7hRdjI9tE5br1Ygn5-20" edge="1">
          <mxGeometry relative="1" as="geometry">
            <Array as="points">
              <mxPoint x="15" y="460" />
              <mxPoint x="-250" y="460" />
            </Array>
          </mxGeometry>
        </mxCell>
        <mxCell id="UbZ7hRdjI9tE5br1Ygn5-12" value="4. Обработка заполнения" style="rounded=0;whiteSpace=wrap;html=1;strokeColor=#00CC00;" parent="1" vertex="1">
          <mxGeometry x="-30" y="404" width="90" height="36" as="geometry" />
        </mxCell>
        <mxCell id="UbZ7hRdjI9tE5br1Ygn5-63" style="edgeStyle=orthogonalEdgeStyle;rounded=0;orthogonalLoop=1;jettySize=auto;html=1;exitX=0.5;exitY=1;exitDx=0;exitDy=0;entryX=0.5;entryY=0;entryDx=0;entryDy=0;strokeColor=#000000;fontColor=#666666;" parent="1" source="UbZ7hRdjI9tE5br1Ygn5-14" target="UbZ7hRdjI9tE5br1Ygn5-20" edge="1">
          <mxGeometry relative="1" as="geometry" />
        </mxCell>
        <mxCell id="UbZ7hRdjI9tE5br1Ygn5-14" value="4. При чтении на сервере" style="rounded=0;whiteSpace=wrap;html=1;strokeColor=#00CC00;" parent="1" vertex="1">
          <mxGeometry x="-315" y="404" width="130" height="46" as="geometry" />
        </mxCell>
        <mxCell id="UbZ7hRdjI9tE5br1Ygn5-15" value="" style="endArrow=classic;html=1;exitX=1;exitY=0.5;exitDx=0;exitDy=0;" parent="1" source="UbZ7hRdjI9tE5br1Ygn5-8" target="UbZ7hRdjI9tE5br1Ygn5-9" edge="1">
          <mxGeometry width="50" height="50" relative="1" as="geometry">
            <mxPoint x="-380" y="469" as="sourcePoint" />
            <mxPoint x="-330" y="419" as="targetPoint" />
          </mxGeometry>
        </mxCell>
        <mxCell id="UbZ7hRdjI9tE5br1Ygn5-64" style="edgeStyle=orthogonalEdgeStyle;rounded=0;orthogonalLoop=1;jettySize=auto;html=1;exitX=0.5;exitY=1;exitDx=0;exitDy=0;strokeColor=#666666;fontColor=#666666;dashed=1;" parent="1" source="UbZ7hRdjI9tE5br1Ygn5-20" target="UbZ7hRdjI9tE5br1Ygn5-22" edge="1">
          <mxGeometry relative="1" as="geometry" />
        </mxCell>
        <mxCell id="UbZ7hRdjI9tE5br1Ygn5-20" value="5. При создании на сервере" style="rounded=0;whiteSpace=wrap;html=1;strokeColor=#00CC00;" parent="1" vertex="1">
          <mxGeometry x="-315" y="475" width="130" height="56" as="geometry" />
        </mxCell>
        <mxCell id="UbZ7hRdjI9tE5br1Ygn5-22" value="5.1. Перед загрузкой данных из настроек на сервере" style="rounded=0;whiteSpace=wrap;html=1;strokeColor=#666666;fontColor=#666666;dashed=1;" parent="1" vertex="1">
          <mxGeometry x="-340" y="568" width="180" height="36" as="geometry" />
        </mxCell>
        <mxCell id="yr5bRLXEil9Msows_Bht-6" style="edgeStyle=orthogonalEdgeStyle;rounded=0;orthogonalLoop=1;jettySize=auto;html=1;entryX=1;entryY=0.5;entryDx=0;entryDy=0;fontSize=10;fontColor=#910000;dashed=1;strokeColor=#666666;" parent="1" source="UbZ7hRdjI9tE5br1Ygn5-24" target="UbZ7hRdjI9tE5br1Ygn5-26" edge="1">
          <mxGeometry relative="1" as="geometry">
            <Array as="points">
              <mxPoint x="-250" y="670" />
              <mxPoint x="-360" y="670" />
              <mxPoint x="-360" y="503" />
            </Array>
          </mxGeometry>
        </mxCell>
        <mxCell id="UbZ7hRdjI9tE5br1Ygn5-24" value="5.2. При загрузке данных из настроек на сервере" style="rounded=0;whiteSpace=wrap;html=1;strokeColor=#666666;fontColor=#666666;dashed=1;" parent="1" vertex="1">
          <mxGeometry x="-340" y="605" width="180" height="36" as="geometry" />
        </mxCell>
        <mxCell id="UbZ7hRdjI9tE5br1Ygn5-30" style="edgeStyle=orthogonalEdgeStyle;rounded=0;orthogonalLoop=1;jettySize=auto;html=1;" parent="1" source="UbZ7hRdjI9tE5br1Ygn5-26" target="UbZ7hRdjI9tE5br1Ygn5-28" edge="1">
          <mxGeometry relative="1" as="geometry" />
        </mxCell>
        <mxCell id="UbZ7hRdjI9tE5br1Ygn5-26" value="6. Активация модуля формы (на клиенте)" style="rounded=0;whiteSpace=wrap;html=1;strokeColor=#666666;fontColor=#666666;" parent="1" vertex="1">
          <mxGeometry x="-530" y="475" width="120" height="55" as="geometry" />
        </mxCell>
        <mxCell id="UbZ7hRdjI9tE5br1Ygn5-69" style="edgeStyle=orthogonalEdgeStyle;rounded=0;orthogonalLoop=1;jettySize=auto;html=1;exitX=0.5;exitY=1;exitDx=0;exitDy=0;entryX=0.5;entryY=0;entryDx=0;entryDy=0;dashed=1;strokeColor=#666666;fontColor=#666666;" parent="1" source="UbZ7hRdjI9tE5br1Ygn5-28" target="UbZ7hRdjI9tE5br1Ygn5-29" edge="1">
          <mxGeometry relative="1" as="geometry" />
        </mxCell>
        <mxCell id="UbZ7hRdjI9tE5br1Ygn5-28" value="7. При открытии" style="rounded=0;whiteSpace=wrap;html=1;strokeColor=#00CC00;" parent="1" vertex="1">
          <mxGeometry x="-530" y="551.5" width="120" height="41" as="geometry" />
        </mxCell>
        <mxCell id="UbZ7hRdjI9tE5br1Ygn5-29" value="7.1. При повторном открытии" style="rounded=0;whiteSpace=wrap;html=1;strokeColor=#666666;fontColor=#666666;dashed=1;" parent="1" vertex="1">
          <mxGeometry x="-530" y="614" width="120" height="54" as="geometry" />
        </mxCell>
        <mxCell id="yr5bRLXEil9Msows_Bht-1" value="Открытие формы" style="text;html=1;strokeColor=none;fillColor=none;align=center;verticalAlign=middle;whiteSpace=wrap;rounded=0;fontStyle=3" parent="1" vertex="1">
          <mxGeometry x="-60" y="200" width="130" height="20" as="geometry" />
        </mxCell>
        <mxCell id="yr5bRLXEil9Msows_Bht-3" value="Чтение данных дин. списков" style="text;html=1;strokeColor=none;fillColor=none;align=center;verticalAlign=middle;whiteSpace=wrap;rounded=0;fontColor=#910000;fontStyle=3;fontSize=10;" parent="1" vertex="1">
          <mxGeometry x="-240" y="648" width="90" height="20" as="geometry" />
        </mxCell>
        <mxCell id="yr5bRLXEil9Msows_Bht-4" value="" style="endArrow=classic;html=1;fontSize=10;fontColor=#910000;rounded=1;jumpStyle=none;strokeColor=#910000;" parent="1" edge="1">
          <mxGeometry width="50" height="50" relative="1" as="geometry">
            <mxPoint x="-160" y="657.58" as="sourcePoint" />
            <mxPoint x="-250" y="657.58" as="targetPoint" />
          </mxGeometry>
        </mxCell>
      </root>
    </mxGraphModel>
  </diagram>
</mxfile>
